<svg version="1.1" viewBox="0.0 0.0 1234.007874015748 379.34383202099735" fill="none" stroke="none" stroke-linecap="square" stroke-miterlimit="10" xmlns:xlink="http://www.w3.org/1999/xlink" xmlns="http://www.w3.org/2000/svg"><clipPath id="p.0"><path d="m0 0l1234.0079 0l0 379.34384l-1234.0079 0l0 -379.34384z" clip-rule="nonzero"/></clipPath><g clip-path="url(#p.0)"><path fill="#000000" fill-opacity="0.0" d="m0 0l1234.0079 0l0 379.34384l-1234.0079 0z" fill-rule="evenodd"/><path fill="#000000" fill-opacity="0.0" d="m18.007874 93.98425l705.0079 0l0 266.01575l-705.0079 0z" fill-rule="evenodd"/><path stroke="#434343" stroke-width="4.0" stroke-linejoin="round" stroke-linecap="butt" d="m18.007874 93.98425l705.0079 0l0 266.01575l-705.0079 0z" fill-rule="evenodd"/><path fill="#ffffff" d="m46.677166 143.03026l0 0c0 -7.071747 5.732788 -12.804535 12.804543 -12.804535l194.04446 0c3.3959808 0 6.6528473 1.3490448 9.054184 3.7503662c2.4013062 2.4013214 3.7503662 5.658203 3.7503662 9.054169l0 108.34367c0 7.071747 -5.732788 12.804535 -12.80455 12.804535l-194.04446 0c-7.0717545 0 -12.804543 -5.732788 -12.804543 -12.804535z" fill-rule="evenodd"/><path stroke="#000000" stroke-width="1.0" stroke-linejoin="round" stroke-linecap="butt" d="m46.677166 143.03026l0 0c0 -7.071747 5.732788 -12.804535 12.804543 -12.804535l194.04446 0c3.3959808 0 6.6528473 1.3490448 9.054184 3.7503662c2.4013062 2.4013214 3.7503662 5.658203 3.7503662 9.054169l0 108.34367c0 7.071747 -5.732788 12.804535 -12.80455 12.804535l-194.04446 0c-7.0717545 0 -12.804543 -5.732788 -12.804543 -12.804535z" fill-rule="evenodd"/><path fill="#434343" d="m46.677166 142.04457l0 0c0 -6.5273743 5.291477 -11.818848 11.818844 -11.818848l196.01587 0c3.134552 0 6.1407166 1.2451935 8.357178 3.4616547c2.2164612 2.2164612 3.46167 5.222641 3.46167 8.357193l0 1.9686127l0 0c0 6.527359 -5.2914734 11.818832 -11.818848 11.818832l-196.01587 0c-6.5273666 0 -11.818844 -5.2914734 -11.818844 -11.818832z" fill-rule="evenodd"/><path fill="#434343" d="m46.66142 142.04462l219.65355 0l0 13.795273l-219.65355 0z" fill-rule="evenodd"/><path fill="#ffffff" d="m54.55643 142.54593l0 0c0 -2.4526672 1.9882774 -4.4409485 4.4409447 -4.4409485l0 0c1.1778107 0 2.3073845 0.4678955 3.1402206 1.3007355c0.83283997 0.8328247 1.300724 1.9624023 1.300724 3.140213l0 0c0 2.4526672 -1.9882774 4.4409485 -4.4409447 4.4409485l0 0c-2.4526672 0 -4.4409447 -1.9882812 -4.4409447 -4.4409485z" fill-rule="evenodd"/><path fill="#ffffff" d="m70.55643 142.54593l0 0c0 -2.4526672 1.9882812 -4.4409485 4.4409485 -4.4409485l0 0c1.1778107 0 2.3073807 0.4678955 3.1402206 1.3007355c0.83283997 0.8328247 1.3007278 1.9624023 1.3007278 3.140213l0 0c0 2.4526672 -1.9882812 4.4409485 -4.4409485 4.4409485l0 0c-2.4526672 0 -4.4409485 -1.9882812 -4.4409485 -4.4409485z" fill-rule="evenodd"/><path fill="#ffffff" d="m86.55643 142.54593l0 0c0 -2.4526672 1.9882812 -4.4409485 4.4409485 -4.4409485l0 0c1.1778107 0 2.3073807 0.4678955 3.1402206 1.3007355c0.83283997 0.8328247 1.3007278 1.9624023 1.3007278 3.140213l0 0c0 2.4526672 -1.9882812 4.4409485 -4.4409485 4.4409485l0 0c-2.4526672 0 -4.4409485 -1.9882812 -4.4409485 -4.4409485z" fill-rule="evenodd"/><path fill="#000000" fill-opacity="0.0" d="m46.65354 154.85039l219.65356 0l0 109.32283l-219.65356 0z" fill-rule="evenodd"/><path fill="#434343" d="m135.19879 227.13931l-24.890633 -14.96875q-1.34375 -0.78125 -1.34375 -2.25q0 -1.21875 1.34375 -2.234375l24.890633 -14.984375q1.21875 -0.5625 2.46875 -0.015625q1.25 0.53125 1.25 2.0q0 1.484375 -1.21875 2.25l-23.937508 14.265625l0 -2.75l23.937508 14.34375q1.21875 0.828125 1.21875 2.171875q0 1.015625 -0.609375 1.65625q-0.609375 0.640625 -1.484375 0.84375q-0.859375 0.1875 -1.625 -0.328125zm11.195435 10.296875q-1.34375 0 -2.078125 -1.0625q-0.734375 -1.046875 -0.15625 -2.453125l20.09375 -50.109375q0.265625 -0.703125 0.890625 -1.078125q0.640625 -0.390625 1.421875 -0.390625q1.40625 0 2.046875 1.125q0.640625 1.109375 0.1875 2.390625l-20.09375 50.171875q-0.328125 0.78125 -0.96875 1.09375q-0.640625 0.3125 -1.34375 0.3125zm31.297195 -10.296875q-0.765625 0.515625 -1.625 0.328125q-0.859375 -0.203125 -1.46875 -0.84375q-0.609375 -0.640625 -0.609375 -1.65625q0 -1.34375 1.21875 -2.171875l24.0 -14.34375l0 2.75l-24.0 -14.265625q-1.21875 -0.765625 -1.21875 -2.25q0 -1.46875 1.234375 -2.0q1.25 -0.546875 2.46875 0.015625l24.90625 14.984375q1.34375 1.015625 1.34375 2.234375q0 1.46875 -1.34375 2.25l-24.90625 14.96875z" fill-rule="nonzero"/><path fill="#434343" d="m535.9619 156.36523l0 0c0 -11.3329315 9.187195 -20.520096 20.520142 -20.520096l82.07788 0l0 0c5.4422607 0 10.661682 2.1619415 14.509949 6.010208c3.8482056 3.8482513 6.010193 9.067627 6.010193 14.509888l0 82.07793c0 11.3329315 -9.187195 20.520096 -20.520142 20.520096l-82.07788 0c-11.332947 0 -20.520142 -9.187164 -20.520142 -20.520096z" fill-rule="evenodd"/><path stroke="#434343" stroke-width="1.0" stroke-linejoin="round" stroke-linecap="butt" d="m535.9619 156.36523l0 0c0 -11.3329315 9.187195 -20.520096 20.520142 -20.520096l82.07788 0l0 0c5.4422607 0 10.661682 2.1619415 14.509949 6.010208c3.8482056 3.8482513 6.010193 9.067627 6.010193 14.509888l0 82.07793c0 11.3329315 -9.187195 20.520096 -20.520142 20.520096l-82.07788 0c-11.332947 0 -20.520142 -9.187164 -20.520142 -20.520096z" fill-rule="evenodd"/><path fill="#434343" d="m562.82806 174.27582l0 0c0 -6.386917 5.1776123 -11.564529 11.564575 -11.564529l46.256714 0l0 0c3.0671387 0 6.008606 1.218399 8.177368 3.3871765c2.1687622 2.1687622 3.387207 5.1102448 3.387207 8.177353l0 46.25676c0 6.386917 -5.1776123 11.564529 -11.564575 11.564529l-46.256714 0c-6.386963 0 -11.564575 -5.1776123 -11.564575 -11.564529z" fill-rule="evenodd"/><path stroke="#ffffff" stroke-width="8.0" stroke-linejoin="round" stroke-linecap="butt" d="m562.82806 174.27582l0 0c0 -6.386917 5.1776123 -11.564529 11.564575 -11.564529l46.256714 0l0 0c3.0671387 0 6.008606 1.218399 8.177368 3.3871765c2.1687622 2.1687622 3.387207 5.1102448 3.387207 8.177353l0 46.25676c0 6.386917 -5.1776123 11.564529 -11.564575 11.564529l-46.256714 0c-6.386963 0 -11.564575 -5.1776123 -11.564575 -11.564529z" fill-rule="evenodd"/><path fill="#434343" d="m554.8018 124.50915l0 0c0 -1.6959686 1.3748779 -3.0708237 3.0708618 -3.0708237l0.75598145 0l0 0c0.8143921 0 1.59552 0.3235321 2.1713867 0.8994217c0.5758667 0.5758896 0.89941406 1.3569717 0.89941406 2.171402l0 21.44889c0 1.6959839 -1.3748169 3.0708313 -3.0708008 3.0708313l-0.75598145 0c-1.6959839 0 -3.0708618 -1.3748474 -3.0708618 -3.0708313z" fill-rule="evenodd"/><path fill="#434343" d="m571.0481 124.50915l0 0c0 -1.6959686 1.3748169 -3.0708237 3.0708008 -3.0708237l0.75598145 0l0 0c0.8144531 0 1.59552 0.3235321 2.1713867 0.8994217c0.57592773 0.5758896 0.8994751 1.3569717 0.8994751 2.171402l0 21.44889c0 1.6959839 -1.3748779 3.0708313 -3.0708618 3.0708313l-0.75598145 0c-1.6959839 0 -3.0708008 -1.3748474 -3.0708008 -3.0708313z" fill-rule="evenodd"/><path fill="#434343" d="m587.0481 124.50915l0 0c0 -1.6959686 1.3748169 -3.0708237 3.0708008 -3.0708237l0.75598145 0l0 0c0.8144531 0 1.59552 0.3235321 2.1713867 0.8994217c0.57592773 0.5758896 0.8994751 1.3569717 0.8994751 2.171402l0 21.44889c0 1.6959839 -1.3748779 3.0708313 -3.0708618 3.0708313l-0.75598145 0c-1.6959839 0 -3.0708008 -1.3748474 -3.0708008 -3.0708313z" fill-rule="evenodd"/><path fill="#434343" d="m603.0481 124.50915l0 0c0 -1.6959686 1.3748169 -3.0708237 3.0708008 -3.0708237l0.75598145 0l0 0c0.8144531 0 1.59552 0.3235321 2.1713867 0.8994217c0.57592773 0.5758896 0.8994751 1.3569717 0.8994751 2.171402l0 21.44889c0 1.6959839 -1.3748779 3.0708313 -3.0708618 3.0708313l-0.75598145 0c-1.6959839 0 -3.0708008 -1.3748474 -3.0708008 -3.0708313z" fill-rule="evenodd"/><path fill="#434343" d="m619.0481 124.50915l0 0c0 -1.6959686 1.3748169 -3.0708237 3.0708008 -3.0708237l0.75598145 0l0 0c0.8144531 0 1.59552 0.3235321 2.1713867 0.8994217c0.57592773 0.5758896 0.8994751 1.3569717 0.8994751 2.171402l0 21.44889c0 1.6959839 -1.3748779 3.0708313 -3.0708618 3.0708313l-0.75598145 0c-1.6959839 0 -3.0708008 -1.3748474 -3.0708008 -3.0708313z" fill-rule="evenodd"/><path fill="#434343" d="m635.0481 124.50915l0 0c0 -1.6959686 1.3748169 -3.0708237 3.0708008 -3.0708237l0.75598145 0l0 0c0.8144531 0 1.59552 0.3235321 2.1713867 0.8994217c0.57592773 0.5758896 0.8994751 1.3569717 0.8994751 2.171402l0 21.44889c0 1.6959839 -1.3748779 3.0708313 -3.0708618 3.0708313l-0.75598145 0c-1.6959839 0 -3.0708008 -1.3748474 -3.0708008 -3.0708313z" fill-rule="evenodd"/><path fill="#434343" d="m554.8018 248.44623l0 0c0 -1.6959686 1.3748779 -3.0708313 3.0708618 -3.0708313l0.75598145 0l0 0c0.8143921 0 1.59552 0.3235321 2.1713867 0.8994293c0.5758667 0.57588196 0.89941406 1.3569641 0.89941406 2.171402l0 21.448883c0 1.6959839 -1.3748169 3.0708313 -3.0708008 3.0708313l-0.75598145 0c-1.6959839 0 -3.0708618 -1.3748474 -3.0708618 -3.0708313z" fill-rule="evenodd"/><path fill="#434343" d="m571.0481 248.44623l0 0c0 -1.6959686 1.3748169 -3.0708313 3.0708008 -3.0708313l0.75598145 0l0 0c0.8144531 0 1.59552 0.3235321 2.1713867 0.8994293c0.57592773 0.57588196 0.8994751 1.3569641 0.8994751 2.171402l0 21.448883c0 1.6959839 -1.3748779 3.0708313 -3.0708618 3.0708313l-0.75598145 0c-1.6959839 0 -3.0708008 -1.3748474 -3.0708008 -3.0708313z" fill-rule="evenodd"/><path fill="#434343" d="m587.0481 248.44623l0 0c0 -1.6959686 1.3748169 -3.0708313 3.0708008 -3.0708313l0.75598145 0l0 0c0.8144531 0 1.59552 0.3235321 2.1713867 0.8994293c0.57592773 0.57588196 0.8994751 1.3569641 0.8994751 2.171402l0 21.448883c0 1.6959839 -1.3748779 3.0708313 -3.0708618 3.0708313l-0.75598145 0c-1.6959839 0 -3.0708008 -1.3748474 -3.0708008 -3.0708313z" fill-rule="evenodd"/><path fill="#434343" d="m603.0481 248.44623l0 0c0 -1.6959686 1.3748169 -3.0708313 3.0708008 -3.0708313l0.75598145 0l0 0c0.8144531 0 1.59552 0.3235321 2.1713867 0.8994293c0.57592773 0.57588196 0.8994751 1.3569641 0.8994751 2.171402l0 21.448883c0 1.6959839 -1.3748779 3.0708313 -3.0708618 3.0708313l-0.75598145 0c-1.6959839 0 -3.0708008 -1.3748474 -3.0708008 -3.0708313z" fill-rule="evenodd"/><path fill="#434343" d="m619.0481 248.44623l0 0c0 -1.6959686 1.3748169 -3.0708313 3.0708008 -3.0708313l0.75598145 0l0 0c0.8144531 0 1.59552 0.3235321 2.1713867 0.8994293c0.57592773 0.57588196 0.8994751 1.3569641 0.8994751 2.171402l0 21.448883c0 1.6959839 -1.3748779 3.0708313 -3.0708618 3.0708313l-0.75598145 0c-1.6959839 0 -3.0708008 -1.3748474 -3.0708008 -3.0708313z" fill-rule="evenodd"/><path fill="#434343" d="m635.0481 248.44623l0 0c0 -1.6959686 1.3748169 -3.0708313 3.0708008 -3.0708313l0.75598145 0l0 0c0.8144531 0 1.59552 0.3235321 2.1713867 0.8994293c0.57592773 0.57588196 0.8994751 1.3569641 0.8994751 2.171402l0 21.448883c0 1.6959839 -1.3748779 3.0708313 -3.0708618 3.0708313l-0.75598145 0c-1.6959839 0 -3.0708008 -1.3748474 -3.0708008 -3.0708313z" fill-rule="evenodd"/><path fill="#434343" d="m648.57135 238.74261l0 0c-1.6959839 0 -3.0708008 -1.3748627 -3.0708008 -3.0708313l0 -0.75598145l0 0c0 -0.81443787 0.32348633 -1.59552 0.89941406 -2.171402c0.5758667 -0.5758972 1.3569336 -0.8994293 2.1713867 -0.8994293l21.448914 0c1.6959839 0 3.0708008 1.3748627 3.0708008 3.0708313l0 0.75598145c0 1.6959686 -1.3748169 3.0708313 -3.0708008 3.0708313z" fill-rule="evenodd"/><path fill="#434343" d="m648.57135 222.49637l0 0c-1.6959839 0 -3.0708008 -1.3748474 -3.0708008 -3.0708313l0 -0.75598145l0 0c0 -0.8144226 0.32348633 -1.5955048 0.89941406 -2.171402c0.5758667 -0.57588196 1.3569336 -0.89941406 2.1713867 -0.89941406l21.448914 0c1.6959839 0 3.0708008 1.3748474 3.0708008 3.070816l0 0.75598145c0 1.6959839 -1.3748169 3.0708313 -3.0708008 3.0708313z" fill-rule="evenodd"/><path fill="#434343" d="m648.57135 206.49637l0 0c-1.6959839 0 -3.0708008 -1.3748474 -3.0708008 -3.0708313l0 -0.75598145l0 0c0 -0.8144226 0.32348633 -1.5955048 0.89941406 -2.171402c0.5758667 -0.57588196 1.3569336 -0.89941406 2.1713867 -0.89941406l21.448914 0c1.6959839 0 3.0708008 1.3748474 3.0708008 3.070816l0 0.75598145c0 1.6959839 -1.3748169 3.0708313 -3.0708008 3.0708313z" fill-rule="evenodd"/><path fill="#434343" d="m648.57135 190.49637l0 0c-1.6959839 0 -3.0708008 -1.3748474 -3.0708008 -3.0708313l0 -0.75598145l0 0c0 -0.8144226 0.32348633 -1.5955048 0.89941406 -2.171402c0.5758667 -0.57588196 1.3569336 -0.89941406 2.1713867 -0.89941406l21.448914 0c1.6959839 0 3.0708008 1.3748474 3.0708008 3.070816l0 0.75598145c0 1.6959839 -1.3748169 3.0708313 -3.0708008 3.0708313z" fill-rule="evenodd"/><path fill="#434343" d="m648.57135 174.49637l0 0c-1.6959839 0 -3.0708008 -1.3748474 -3.0708008 -3.0708313l0 -0.75598145l0 0c0 -0.8144226 0.32348633 -1.5955048 0.89941406 -2.171402c0.5758667 -0.57588196 1.3569336 -0.89941406 2.1713867 -0.89941406l21.448914 0c1.6959839 0 3.0708008 1.3748474 3.0708008 3.070816l0 0.75598145c0 1.6959839 -1.3748169 3.0708313 -3.0708008 3.0708313z" fill-rule="evenodd"/><path fill="#434343" d="m648.57135 158.49637l0 0c-1.6959839 0 -3.0708008 -1.3748474 -3.0708008 -3.0708313l0 -0.75598145l0 0c0 -0.8144226 0.32348633 -1.5955048 0.89941406 -2.171402c0.5758667 -0.57588196 1.3569336 -0.89941406 2.1713867 -0.89941406l21.448914 0c1.6959839 0 3.0708008 1.3748474 3.0708008 3.070816l0 0.75598145c0 1.6959839 -1.3748169 3.0708313 -3.0708008 3.0708313z" fill-rule="evenodd"/><path fill="#434343" d="m524.6343 238.74261l0 0c-1.6959839 0 -3.0708008 -1.3748627 -3.0708008 -3.0708313l0 -0.75598145l0 0c0 -0.81443787 0.32348633 -1.59552 0.89941406 -2.171402c0.5758667 -0.5758972 1.3569336 -0.8994293 2.1713867 -0.8994293l21.448914 0c1.6959839 0 3.0708008 1.3748627 3.0708008 3.0708313l0 0.75598145c0 1.6959686 -1.3748169 3.0708313 -3.0708008 3.0708313z" fill-rule="evenodd"/><path fill="#434343" d="m524.6343 222.49637l0 0c-1.6959839 0 -3.0708008 -1.3748474 -3.0708008 -3.0708313l0 -0.75598145l0 0c0 -0.8144226 0.32348633 -1.5955048 0.89941406 -2.171402c0.5758667 -0.57588196 1.3569336 -0.89941406 2.1713867 -0.89941406l21.448914 0c1.6959839 0 3.0708008 1.3748474 3.0708008 3.070816l0 0.75598145c0 1.6959839 -1.3748169 3.0708313 -3.0708008 3.0708313z" fill-rule="evenodd"/><path fill="#434343" d="m524.6343 206.49637l0 0c-1.6959839 0 -3.0708008 -1.3748474 -3.0708008 -3.0708313l0 -0.75598145l0 0c0 -0.8144226 0.32348633 -1.5955048 0.89941406 -2.171402c0.5758667 -0.57588196 1.3569336 -0.89941406 2.1713867 -0.89941406l21.448914 0c1.6959839 0 3.0708008 1.3748474 3.0708008 3.070816l0 0.75598145c0 1.6959839 -1.3748169 3.0708313 -3.0708008 3.0708313z" fill-rule="evenodd"/><path fill="#434343" d="m524.6343 190.49637l0 0c-1.6959839 0 -3.0708008 -1.3748474 -3.0708008 -3.0708313l0 -0.75598145l0 0c0 -0.8144226 0.32348633 -1.5955048 0.89941406 -2.171402c0.5758667 -0.57588196 1.3569336 -0.89941406 2.1713867 -0.89941406l21.448914 0c1.6959839 0 3.0708008 1.3748474 3.0708008 3.070816l0 0.75598145c0 1.6959839 -1.3748169 3.0708313 -3.0708008 3.0708313z" fill-rule="evenodd"/><path fill="#434343" d="m524.6343 174.49637l0 0c-1.6959839 0 -3.0708008 -1.3748474 -3.0708008 -3.0708313l0 -0.75598145l0 0c0 -0.8144226 0.32348633 -1.5955048 0.89941406 -2.171402c0.5758667 -0.57588196 1.3569336 -0.89941406 2.1713867 -0.89941406l21.448914 0c1.6959839 0 3.0708008 1.3748474 3.0708008 3.070816l0 0.75598145c0 1.6959839 -1.3748169 3.0708313 -3.0708008 3.0708313z" fill-rule="evenodd"/><path fill="#434343" d="m524.6343 158.49637l0 0c-1.6959839 0 -3.0708008 -1.3748474 -3.0708008 -3.0708313l0 -0.75598145l0 0c0 -0.8144226 0.32348633 -1.5955048 0.89941406 -2.171402c0.5758667 -0.57588196 1.3569336 -0.89941406 2.1713867 -0.89941406l21.448914 0c1.6959839 0 3.0708008 1.3748474 3.0708008 3.070816l0 0.75598145c0 1.6959839 -1.3748169 3.0708313 -3.0708008 3.0708313z" fill-rule="evenodd"/><path fill="#ffffff" d="m963.0105 197.2021l0 0c0 -43.356537 35.1474 -78.50394 78.50391 -78.50394l0 0c20.820557 0 40.78833 8.27092 55.510742 22.99327c14.72229 14.722336 22.993286 34.690125 22.993286 55.510666l0 0c0 43.35652 -35.14746 78.50392 -78.50403 78.50392l0 0c-43.356506 0 -78.50391 -35.1474 -78.50391 -78.50392z" fill-rule="evenodd"/><path stroke="#434343" stroke-width="8.0" stroke-linejoin="round" stroke-linecap="butt" d="m963.0105 197.2021l0 0c0 -43.356537 35.1474 -78.50394 78.50391 -78.50394l0 0c20.820557 0 40.78833 8.27092 55.510742 22.99327c14.72229 14.722336 22.993286 34.690125 22.993286 55.510666l0 0c0 43.35652 -35.14746 78.50392 -78.50403 78.50392l0 0c-43.356506 0 -78.50391 -35.1474 -78.50391 -78.50392z" fill-rule="evenodd"/><path fill="#000000" fill-opacity="0.0" d="m1041.5144 118.698166c0 12.752182 -5.8045654 13.539505 -11.611572 25.504349c-5.806885 11.964859 -11.615967 35.107254 -11.611511 58.999634c0.0045166016 23.892395 5.822693 48.534805 11.643005 58.999634c5.8204346 10.464844 11.643066 6.752136 11.643066 13.504242" fill-rule="evenodd"/><path stroke="#434343" stroke-width="8.0" stroke-linejoin="round" stroke-linecap="butt" d="m1041.5144 118.698166c0 12.752182 -5.8045654 13.539505 -11.611572 25.504349c-5.806885 11.964859 -11.615967 35.107254 -11.611511 58.999634c0.0045166016 23.892395 5.822693 48.534805 11.643005 58.999634c5.8204346 10.464844 11.643066 6.752136 11.643066 13.504242" fill-rule="evenodd"/><path fill="#000000" fill-opacity="0.0" d="m986.0038 141.69144c0 13.319611 29.500977 21.163528 53.6438 26.639221c24.142822 5.4756775 42.927612 8.58313 53.6438 14.428421c10.716309 5.845291 13.364136 14.428421 26.72815 14.428421" fill-rule="evenodd"/><path stroke="#434343" stroke-width="8.0" stroke-linejoin="round" stroke-linecap="butt" d="m986.0038 141.69144c0 13.319611 29.500977 21.163528 53.6438 26.639221c24.142822 5.4756775 42.927612 8.58313 53.6438 14.428421c10.716309 5.845291 13.364136 14.428421 26.72815 14.428421" fill-rule="evenodd"/><path fill="#000000" fill-opacity="0.0" d="m1097.0251 141.69144c0 24.319717 -18.105347 37.99524 -30.866821 48.63945c-12.761475 10.644196 -20.1792 18.257095 -30.866821 31.192078c-10.6875 12.934998 -24.64502 31.192093 -49.29004 31.192093" fill-rule="evenodd"/><path stroke="#434343" stroke-width="8.0" stroke-linejoin="round" stroke-linecap="butt" d="m1097.0251 141.69144c0 24.319717 -18.105347 37.99524 -30.866821 48.63945c-12.761475 10.644196 -20.1792 18.257095 -30.866821 31.192078c-10.6875 12.934998 -24.64502 31.192093 -49.29004 31.192093" fill-rule="evenodd"/><path fill="#434343" d="m1012.17847 163.33858l0 0c0 -6.427368 5.210449 -11.637787 11.637817 -11.637787l0 0c3.0865479 0 6.046631 1.22612 8.229126 3.4086304c2.182495 2.1825104 3.4086914 5.142624 3.4086914 8.2291565l0 0c0 6.4273834 -5.210449 11.637802 -11.637817 11.637802l0 0c-6.427368 0 -11.637817 -5.2104187 -11.637817 -11.637802z" fill-rule="evenodd"/><path fill="#434343" d="m1068.7506 177.33858l0 0c0 -6.427368 5.210449 -11.637787 11.637817 -11.637787l0 0c3.0865479 0 6.046631 1.22612 8.229248 3.4086304c2.182495 2.1825104 3.4085693 5.142624 3.4085693 8.2291565l0 0c0 6.4273834 -5.210449 11.637802 -11.637817 11.637802l0 0c-6.427368 0 -11.637817 -5.2104187 -11.637817 -11.637802z" fill-rule="evenodd"/><path fill="#434343" d="m1006.17847 236.33858l0 0c0 -6.427368 5.210449 -11.637787 11.637817 -11.637787l0 0c3.0865479 0 6.046631 1.22612 8.229126 3.4086304c2.182495 2.1825104 3.4086914 5.142624 3.4086914 8.2291565l0 0c0 6.4273834 -5.210449 11.637802 -11.637817 11.637802l0 0c-6.427368 0 -11.637817 -5.2104187 -11.637817 -11.637802z" fill-rule="evenodd"/><path fill="#000000" fill-opacity="0.0" d="m25.007874 43.527557l432.6299 0l0 50.456696l-432.6299 0z" fill-rule="evenodd"/><path fill="#000000" d="m47.632874 71.76318q1.21875 0.1875 2.21875 0.984375q1.015625 0.796875 1.609375 1.984375q0.59375 1.1875 0.59375 2.53125q0 1.703125 -0.875 3.0625q-0.859375 1.359375 -2.5 2.140625q-1.640625 0.78125 -3.890625 0.78125l-8.3125 0l0 -22.296875l8.0 0q2.265625 0 3.859375 0.75q1.609375 0.75 2.40625 2.03125q0.796875 1.28125 0.796875 2.875q0 1.984375 -1.078125 3.28125q-1.0625 1.296875 -2.828125 1.875zm-8.25 -1.1875l4.890625 0q2.046875 0 3.171875 -0.953125q1.125 -0.96875 1.125 -2.65625q0 -1.703125 -1.125 -2.65625q-1.125 -0.96875 -3.234375 -0.96875l-4.828125 0l0 7.234375zm5.15625 10.265625q2.171875 0 3.390625 -1.015625q1.21875 -1.03125 1.21875 -2.84375q0 -1.859375 -1.28125 -2.921875q-1.28125 -1.078125 -3.421875 -1.078125l-5.0625 0l0 7.859375l5.15625 0zm14.459793 -12.28125q0.765625 -1.5 2.1875 -2.328125q1.421875 -0.84375 3.484375 -0.84375l0 3.015625l-0.78125 0q-4.890625 0 -4.890625 5.3125l0 9.53125l-2.90625 0l0 -17.53125l2.90625 0l0 2.84375zm16.670395 14.96875q-2.46875 0 -4.46875 -1.109375q-2.0 -1.125 -3.140625 -3.1875q-1.125 -2.0625 -1.125 -4.78125q0 -2.6875 1.171875 -4.75q1.171875 -2.0625 3.1875 -3.171875q2.015625 -1.109375 4.5 -1.109375q2.5 0 4.515625 1.109375q2.015625 1.109375 3.1875 3.15625q1.171875 2.046875 1.171875 4.765625q0 2.71875 -1.203125 4.78125q-1.203125 2.0625 -3.25 3.1875q-2.046875 1.109375 -4.546875 1.109375zm0 -2.546875q1.578125 0 2.953125 -0.734375q1.375 -0.75 2.21875 -2.21875q0.84375 -1.46875 0.84375 -3.578125q0 -2.109375 -0.828125 -3.578125q-0.828125 -1.484375 -2.171875 -2.203125q-1.34375 -0.71875 -2.921875 -0.71875q-1.59375 0 -2.921875 0.71875q-1.328125 0.71875 -2.125 2.203125q-0.796875 1.46875 -0.796875 3.578125q0 2.140625 0.78125 3.609375q0.78125 1.46875 2.09375 2.203125q1.3125 0.71875 2.875 0.71875zm36.19879 -15.265625l-5.46875 17.53125l-3.015625 0l-4.21875 -13.921875l-4.234375 13.921875l-3.0 0l-5.5 -17.53125l2.96875 0l4.03125 14.71875l4.359375 -14.71875l2.96875 0l4.25 14.75l3.96875 -14.75l2.890625 0zm9.083801 17.8125q-2.015625 0 -3.625 -0.6875q-1.59375 -0.6875 -2.53125 -1.90625q-0.921875 -1.234375 -1.015625 -2.84375l3.015625 0q0.125 1.3125 1.21875 2.15625q1.109375 0.828125 2.90625 0.828125q1.65625 0 2.609375 -0.734375q0.96875 -0.734375 0.96875 -1.859375q0 -1.15625 -1.03125 -1.71875q-1.015625 -0.5625 -3.15625 -1.09375q-1.953125 -0.515625 -3.1875 -1.046875q-1.234375 -0.53125 -2.109375 -1.5625q-0.875 -1.046875 -0.875 -2.734375q0 -1.34375 0.796875 -2.46875q0.796875 -1.125 2.265625 -1.78125q1.484375 -0.65625 3.359375 -0.65625q2.921875 0 4.703125 1.484375q1.796875 1.46875 1.921875 4.03125l-2.90625 0q-0.09375 -1.390625 -1.109375 -2.21875q-1.0 -0.828125 -2.703125 -0.828125q-1.5625 0 -2.5 0.671875q-0.921875 0.671875 -0.921875 1.765625q0 0.859375 0.5625 1.421875q0.5625 0.5625 1.40625 0.90625q0.84375 0.328125 2.359375 0.734375q1.875 0.515625 3.0625 1.015625q1.1875 0.484375 2.03125 1.484375q0.859375 0.984375 0.890625 2.59375q0 1.4375 -0.8125 2.59375q-0.796875 1.140625 -2.25 1.796875q-1.453125 0.65625 -3.34375 0.65625zm26.500916 -9.71875q0 0.828125 -0.09375 1.75l-14.015625 0q0.15625 2.59375 1.765625 4.0625q1.625 1.453125 3.921875 1.453125q1.890625 0 3.15625 -0.875q1.265625 -0.890625 1.765625 -2.359375l3.140625 0q-0.703125 2.53125 -2.8125 4.109375q-2.109375 1.578125 -5.25 1.578125q-2.5 0 -4.46875 -1.109375q-1.96875 -1.125 -3.09375 -3.1875q-1.109375 -2.0625 -1.109375 -4.78125q0 -2.71875 1.078125 -4.765625q1.09375 -2.046875 3.0625 -3.15625q1.96875 -1.109375 4.53125 -1.109375q2.5 0 4.421875 1.09375q1.921875 1.09375 2.953125 3.0q1.046875 1.890625 1.046875 4.296875zm-3.015625 -0.609375q0 -1.671875 -0.734375 -2.859375q-0.734375 -1.203125 -2.0 -1.828125q-1.265625 -0.625 -2.796875 -0.625q-2.203125 0 -3.765625 1.40625q-1.546875 1.40625 -1.765625 3.90625l11.0625 0zm9.761917 -4.640625q0.765625 -1.5 2.1875 -2.328125q1.421875 -0.84375 3.484375 -0.84375l0 3.015625l-0.78125 0q-4.890625 0 -4.890625 5.3125l0 9.53125l-2.90625 0l0 -17.53125l2.90625 0l0 2.84375z" fill-rule="nonzero"/><path fill="#000000" fill-opacity="0.0" d="m46.65354 264.17847l219.68506 0l0 50.456696l-219.68506 0z" fill-rule="evenodd"/><path fill="#000000" d="m125.8923 278.09848l-3.765625 13.0l-1.90625 0l-3.03125 -10.46875l-3.125 10.46875l-1.890625 0.015625l-3.640625 -13.015625l1.8125 0l2.84375 11.015625l3.125 -11.015625l1.90625 0l2.984375 10.984375l2.859375 -10.984375l1.828125 0zm11.192886 7.5q0 0.484375 -0.0625 1.015625l-8.171875 0q0.09375 1.515625 1.03125 2.375q0.953125 0.84375 2.296875 0.84375q1.09375 0 1.828125 -0.515625q0.75 -0.515625 1.046875 -1.375l1.828125 0q-0.40625 1.484375 -1.640625 2.40625q-1.234375 0.921875 -3.0625 0.921875q-1.453125 0 -2.609375 -0.65625q-1.140625 -0.65625 -1.796875 -1.859375q-0.65625 -1.203125 -0.65625 -2.78125q0 -1.59375 0.640625 -2.78125q0.640625 -1.203125 1.78125 -1.84375q1.140625 -0.640625 2.640625 -0.640625q1.453125 0 2.5625 0.640625q1.125 0.625 1.734375 1.734375q0.609375 1.109375 0.609375 2.515625zm-1.75 -0.359375q0 -0.96875 -0.4375 -1.671875q-0.421875 -0.703125 -1.171875 -1.0625q-0.734375 -0.359375 -1.625 -0.359375q-1.28125 0 -2.1875 0.828125q-0.90625 0.8125 -1.03125 2.265625l6.453125 0zm5.6918793 -2.46875q0.515625 -0.90625 1.515625 -1.484375q1.015625 -0.578125 2.296875 -0.578125q1.390625 0 2.484375 0.65625q1.109375 0.65625 1.734375 1.84375q0.640625 1.171875 0.640625 2.734375q0 1.5625 -0.640625 2.78125q-0.625 1.203125 -1.734375 1.875q-1.109375 0.671875 -2.484375 0.671875q-1.3125 0 -2.3125 -0.578125q-1.0 -0.578125 -1.5 -1.484375l0 1.890625l-1.703125 0l0 -13.8125l1.703125 0l0 5.484375zm6.9375 3.171875q0 -1.15625 -0.46875 -2.0q-0.46875 -0.859375 -1.265625 -1.3125q-0.78125 -0.453125 -1.734375 -0.453125q-0.9375 0 -1.734375 0.46875q-0.796875 0.453125 -1.265625 1.328125q-0.46875 0.859375 -0.46875 2.0q0 1.15625 0.46875 2.03125q0.46875 0.859375 1.265625 1.3125q0.796875 0.453125 1.734375 0.453125q0.953125 0 1.734375 -0.453125q0.796875 -0.453125 1.265625 -1.3125q0.46875 -0.875 0.46875 -2.0625zm10.65535 -3.1875q0.5 -0.875 1.5 -1.453125q1.0 -0.59375 2.3125 -0.59375q1.375 0 2.484375 0.65625q1.109375 0.65625 1.734375 1.84375q0.640625 1.171875 0.640625 2.734375q0 1.5625 -0.640625 2.78125q-0.625 1.203125 -1.734375 1.875q-1.109375 0.671875 -2.484375 0.671875q-1.296875 0 -2.296875 -0.578125q-1.0 -0.59375 -1.515625 -1.484375l0 6.734375l-1.703125 0l0 -15.0625l1.703125 0l0 1.875zm6.9375 3.1875q0 -1.15625 -0.46875 -2.0q-0.46875 -0.859375 -1.265625 -1.3125q-0.78125 -0.453125 -1.734375 -0.453125q-0.9375 0 -1.734375 0.46875q-0.796875 0.453125 -1.265625 1.328125q-0.46875 0.859375 -0.46875 2.0q0 1.15625 0.46875 2.03125q0.46875 0.859375 1.265625 1.3125q0.796875 0.453125 1.734375 0.453125q0.953125 0 1.734375 -0.453125q0.796875 -0.453125 1.265625 -1.3125q0.46875 -0.875 0.46875 -2.0625zm3.3303833 0q0 -1.5625 0.640625 -2.734375q0.640625 -1.1875 1.75 -1.84375q1.109375 -0.65625 2.46875 -0.65625q1.34375 0 2.328125 0.578125q0.984375 0.578125 1.46875 1.453125l0 -1.859375l1.71875 0l0 10.21875l-1.71875 0l0 -1.90625q-0.5 0.90625 -1.5 1.5q-1.0 0.578125 -2.3125 0.578125q-1.375 0 -2.46875 -0.671875q-1.09375 -0.671875 -1.734375 -1.875q-0.640625 -1.21875 -0.640625 -2.78125zm8.65625 0.03125q0 -1.15625 -0.46875 -2.015625q-0.453125 -0.859375 -1.25 -1.3125q-0.796875 -0.46875 -1.75 -0.46875q-0.953125 0 -1.734375 0.453125q-0.78125 0.453125 -1.25 1.3125q-0.46875 0.84375 -0.46875 2.0q0 1.1875 0.46875 2.0625q0.46875 0.859375 1.25 1.3125q0.78125 0.453125 1.734375 0.453125q0.953125 0 1.75 -0.453125q0.796875 -0.453125 1.25 -1.3125q0.46875 -0.875 0.46875 -2.03125zm8.814758 -5.265625q1.328125 0 2.3125 0.578125q1.0 0.578125 1.484375 1.453125l0 -1.859375l1.71875 0l0 10.4375q0 1.40625 -0.59375 2.5q-0.59375 1.09375 -1.703125 1.703125q-1.109375 0.609375 -2.59375 0.609375q-2.015625 0 -3.359375 -0.953125q-1.34375 -0.9375 -1.578125 -2.578125l1.671875 0q0.28125 0.921875 1.15625 1.484375q0.890625 0.578125 2.109375 0.578125q1.40625 0 2.28125 -0.875q0.890625 -0.875 0.890625 -2.46875l0 -2.140625q-0.5 0.890625 -1.484375 1.5q-0.984375 0.59375 -2.3125 0.59375q-1.359375 0 -2.46875 -0.671875q-1.109375 -0.671875 -1.75 -1.875q-0.640625 -1.21875 -0.640625 -2.78125q0 -1.5625 0.640625 -2.734375q0.640625 -1.1875 1.75 -1.84375q1.109375 -0.65625 2.46875 -0.65625zm3.796875 5.265625q0 -1.15625 -0.46875 -2.015625q-0.453125 -0.859375 -1.25 -1.3125q-0.796875 -0.46875 -1.75 -0.46875q-0.953125 0 -1.734375 0.453125q-0.78125 0.453125 -1.25 1.3125q-0.46875 0.84375 -0.46875 2.0q0 1.1875 0.46875 2.0625q0.46875 0.859375 1.25 1.3125q0.78125 0.453125 1.734375 0.453125q0.953125 0 1.75 -0.453125q0.796875 -0.453125 1.25 -1.3125q0.46875 -0.875 0.46875 -2.03125zm13.924133 -0.375q0 0.484375 -0.0625 1.015625l-8.171875 0q0.09375 1.515625 1.03125 2.375q0.953125 0.84375 2.296875 0.84375q1.09375 0 1.828125 -0.515625q0.75 -0.515625 1.046875 -1.375l1.828125 0q-0.40625 1.484375 -1.640625 2.40625q-1.234375 0.921875 -3.0625 0.921875q-1.453125 0 -2.609375 -0.65625q-1.140625 -0.65625 -1.796875 -1.859375q-0.65625 -1.203125 -0.65625 -2.78125q0 -1.59375 0.640625 -2.78125q0.640625 -1.203125 1.78125 -1.84375q1.140625 -0.640625 2.640625 -0.640625q1.453125 0 2.5625 0.640625q1.125 0.625 1.734375 1.734375q0.609375 1.109375 0.609375 2.515625zm-1.75 -0.359375q0 -0.96875 -0.4375 -1.671875q-0.421875 -0.703125 -1.171875 -1.0625q-0.734375 -0.359375 -1.625 -0.359375q-1.28125 0 -2.1875 0.828125q-0.90625 0.8125 -1.03125 2.265625l6.453125 0z" fill-rule="nonzero"/><path fill="#000000" fill-opacity="0.0" d="m524.1575 272.96588l151.52759 0l0 50.456696l-151.52759 0z" fill-rule="evenodd"/><path fill="#000000" d="m571.7719 300.01086q-1.296875 0 -2.3125 -0.453125q-1.015625 -0.453125 -1.59375 -1.265625q-0.578125 -0.8125 -0.59375 -1.875l1.8125 0q0.09375 0.90625 0.75 1.53125q0.671875 0.625 1.9375 0.625q1.203125 0 1.90625 -0.59375q0.703125 -0.609375 0.703125 -1.5625q0 -0.75 -0.421875 -1.21875q-0.40625 -0.46875 -1.015625 -0.703125q-0.609375 -0.25 -1.65625 -0.515625q-1.296875 -0.34375 -2.078125 -0.671875q-0.765625 -0.34375 -1.3125 -1.0625q-0.546875 -0.71875 -0.546875 -1.9375q0 -1.0625 0.53125 -1.875q0.546875 -0.828125 1.515625 -1.265625q0.984375 -0.453125 2.265625 -0.453125q1.828125 0 2.984375 0.921875q1.171875 0.90625 1.3125 2.421875l-1.859375 0q-0.09375 -0.75 -0.78125 -1.3125q-0.6875 -0.578125 -1.828125 -0.578125q-1.0625 0 -1.734375 0.5625q-0.671875 0.546875 -0.671875 1.53125q0 0.703125 0.390625 1.15625q0.40625 0.453125 0.984375 0.6875q0.59375 0.21875 1.65625 0.53125q1.296875 0.34375 2.078125 0.6875q0.78125 0.34375 1.34375 1.0625q0.5625 0.71875 0.5625 1.953125q0 0.953125 -0.515625 1.796875q-0.5 0.828125 -1.484375 1.359375q-0.984375 0.515625 -2.328125 0.515625zm16.154358 -5.625q0 0.484375 -0.0625 1.015625l-8.171875 0q0.09375 1.515625 1.03125 2.375q0.953125 0.84375 2.296875 0.84375q1.09375 0 1.828125 -0.515625q0.75 -0.515625 1.046875 -1.375l1.828125 0q-0.40625 1.484375 -1.640625 2.40625q-1.234375 0.921875 -3.0625 0.921875q-1.453125 0 -2.609375 -0.65625q-1.140625 -0.65625 -1.796875 -1.859375q-0.65625 -1.203125 -0.65625 -2.78125q0 -1.59375 0.640625 -2.78125q0.640625 -1.203125 1.78125 -1.84375q1.140625 -0.640625 2.640625 -0.640625q1.453125 0 2.5625 0.640625q1.125 0.625 1.734375 1.734375q0.609375 1.109375 0.609375 2.515625zm-1.75 -0.359375q0 -0.96875 -0.4375 -1.671875q-0.421875 -0.703125 -1.171875 -1.0625q-0.734375 -0.359375 -1.625 -0.359375q-1.28125 0 -2.1875 0.828125q-0.90625 0.8125 -1.03125 2.265625l6.453125 0zm5.6918945 -2.703125q0.4375 -0.875 1.265625 -1.359375q0.84375 -0.484375 2.03125 -0.484375l0 1.75l-0.453125 0q-2.84375 0 -2.84375 3.09375l0 5.5625l-1.703125 0l0 -10.21875l1.703125 0l0 1.65625zm9.068115 7.0l3.15625 -8.65625l1.8125 0l-4.0 10.21875l-1.984375 0l-4.015625 -10.21875l1.828125 0l3.203125 8.65625zm7.5286865 -10.328125q-0.484375 0 -0.828125 -0.328125q-0.328125 -0.34375 -0.328125 -0.828125q0 -0.484375 0.328125 -0.8125q0.34375 -0.34375 0.828125 -0.34375q0.46875 0 0.796875 0.34375q0.328125 0.328125 0.328125 0.8125q0 0.484375 -0.328125 0.828125q-0.328125 0.328125 -0.796875 0.328125zm0.828125 1.671875l0 10.21875l-1.703125 0l0 -10.21875l1.703125 0zm2.2456665 5.09375q0 -1.59375 0.640625 -2.765625q0.640625 -1.1875 1.765625 -1.84375q1.125 -0.65625 2.578125 -0.65625q1.890625 0 3.109375 0.921875q1.21875 0.90625 1.609375 2.53125l-1.828125 0q-0.265625 -0.9375 -1.015625 -1.46875q-0.75 -0.546875 -1.875 -0.546875q-1.453125 0 -2.359375 1.0q-0.890625 1.0 -0.890625 2.828125q0 1.84375 0.890625 2.859375q0.90625 1.0 2.359375 1.0q1.125 0 1.859375 -0.515625q0.75 -0.53125 1.03125 -1.5l1.828125 0q-0.40625 1.5625 -1.640625 2.515625q-1.234375 0.9375 -3.078125 0.9375q-1.453125 0 -2.578125 -0.65625q-1.125 -0.65625 -1.765625 -1.84375q-0.640625 -1.203125 -0.640625 -2.796875zm21.29309 -0.375q0 0.484375 -0.0625 1.015625l-8.171875 0q0.09375 1.515625 1.03125 2.375q0.953125 0.84375 2.296875 0.84375q1.09375 0 1.828125 -0.515625q0.75 -0.515625 1.046875 -1.375l1.828125 0q-0.40625 1.484375 -1.640625 2.40625q-1.234375 0.921875 -3.0625 0.921875q-1.453125 0 -2.609375 -0.65625q-1.140625 -0.65625 -1.796875 -1.859375q-0.65625 -1.203125 -0.65625 -2.78125q0 -1.59375 0.640625 -2.78125q0.640625 -1.203125 1.78125 -1.84375q1.140625 -0.640625 2.640625 -0.640625q1.453125 0 2.5625 0.640625q1.125 0.625 1.734375 1.734375q0.609375 1.109375 0.609375 2.515625zm-1.75 -0.359375q0 -0.96875 -0.4375 -1.671875q-0.421875 -0.703125 -1.171875 -1.0625q-0.734375 -0.359375 -1.625 -0.359375q-1.28125 0 -2.1875 0.828125q-0.90625 0.8125 -1.03125 2.265625l6.453125 0z" fill-rule="nonzero"/><path fill="#000000" d="m583.8185 311.6671l-3.203125 10.21875l-1.75 0l-2.453125 -8.109375l-2.46875 8.109375l-1.75 0l-3.21875 -10.21875l1.734375 0l2.359375 8.578125l2.53125 -8.578125l1.734375 0l2.484375 8.59375l2.3125 -8.59375l1.6875 0zm6.1262817 10.390625q-1.4375 0 -2.609375 -0.65625q-1.15625 -0.65625 -1.828125 -1.859375q-0.65625 -1.203125 -0.65625 -2.78125q0 -1.578125 0.6875 -2.78125q0.6875 -1.203125 1.859375 -1.84375q1.171875 -0.640625 2.625 -0.640625q1.453125 0 2.625 0.640625q1.1875 0.640625 1.859375 1.84375q0.6875 1.1875 0.6875 2.78125q0 1.578125 -0.703125 2.78125q-0.703125 1.203125 -1.90625 1.859375q-1.1875 0.65625 -2.640625 0.65625zm0 -1.5q0.921875 0 1.71875 -0.421875q0.796875 -0.4375 1.296875 -1.296875q0.5 -0.859375 0.5 -2.078125q0 -1.234375 -0.484375 -2.09375q-0.484375 -0.859375 -1.28125 -1.28125q-0.78125 -0.421875 -1.6875 -0.421875q-0.9375 0 -1.71875 0.421875q-0.765625 0.421875 -1.234375 1.28125q-0.46875 0.859375 -0.46875 2.09375q0 1.25 0.453125 2.109375q0.46875 0.84375 1.234375 1.265625q0.765625 0.421875 1.671875 0.421875zm9.190002 -7.234375q0.4375 -0.875 1.265625 -1.359375q0.84375 -0.484375 2.03125 -0.484375l0 1.75l-0.453125 0q-2.84375 0 -2.84375 3.09375l0 5.5625l-1.703125 0l0 -10.21875l1.703125 0l0 1.65625zm10.95874 8.5625l-4.0 -4.515625l0 4.515625l-1.703125 0l0 -13.8125l1.703125 0l0 8.125l3.9375 -4.53125l2.359375 0l-4.8125 5.09375l4.828125 5.125l-2.3125 0zm13.232971 -5.5q0 0.484375 -0.0625 1.015625l-8.171875 0q0.09375 1.515625 1.03125 2.375q0.953125 0.84375 2.296875 0.84375q1.09375 0 1.828125 -0.515625q0.75 -0.515625 1.046875 -1.375l1.828125 0q-0.40625 1.484375 -1.640625 2.40625q-1.234375 0.921875 -3.0625 0.921875q-1.453125 0 -2.609375 -0.65625q-1.140625 -0.65625 -1.796875 -1.859375q-0.65625 -1.203125 -0.65625 -2.78125q0 -1.59375 0.640625 -2.78125q0.640625 -1.203125 1.78125 -1.84375q1.140625 -0.640625 2.640625 -0.640625q1.453125 0 2.5625 0.640625q1.125 0.625 1.734375 1.734375q0.609375 1.109375 0.609375 2.515625zm-1.75 -0.359375q0 -0.96875 -0.4375 -1.671875q-0.421875 -0.703125 -1.171875 -1.0625q-0.734375 -0.359375 -1.625 -0.359375q-1.28125 0 -2.1875 0.828125q-0.90625 0.8125 -1.03125 2.265625l6.453125 0zm5.6918945 -2.703125q0.4375 -0.875 1.265625 -1.359375q0.84375 -0.484375 2.03125 -0.484375l0 1.75l-0.453125 0q-2.84375 0 -2.84375 3.09375l0 5.5625l-1.703125 0l0 -10.21875l1.703125 0l0 1.65625z" fill-rule="nonzero"/><path fill="#434343" d="m296.00787 215.1181l37.99994 -25.228333l0 18.000168l103.52768 0l0 -18.000168l37.99994 25.228333l-37.99994 25.228348l0 -18.000168l-103.52768 0l0 18.000168z" fill-rule="evenodd"/><path fill="#434343" d="m740.2874 215.1181l37.99994 -25.228333l0 18.000168l103.52765 0l0 -18.000168l37.99994 25.228333l-37.99994 25.228348l0 -18.000168l-103.52765 0l0 18.000168z" fill-rule="evenodd"/><path fill="#000000" fill-opacity="0.0" d="m965.7507 286.96588l151.52753 0l0 50.456696l-151.52753 0z" fill-rule="evenodd"/><path fill="#000000" d="m1015.5317 313.88586l-1.6875 0l-6.828125 -10.359375l0 10.359375l-1.703125 0l0 -13.015625l1.703125 0l6.828125 10.328125l0 -10.328125l1.6875 0l0 13.015625zm12.2247925 -5.5q0 0.484375 -0.0625 1.015625l-8.171936 0q0.09375 1.515625 1.03125 2.375q0.953125 0.84375 2.296875 0.84375q1.09375 0 1.828186 -0.515625q0.75 -0.515625 1.046875 -1.375l1.828125 0q-0.40625 1.484375 -1.640625 2.40625q-1.234375 0.921875 -3.062561 0.921875q-1.453125 0 -2.609375 -0.65625q-1.140625 -0.65625 -1.796875 -1.859375q-0.65625 -1.203125 -0.65625 -2.78125q0 -1.59375 0.640625 -2.78125q0.640625 -1.203125 1.78125 -1.84375q1.140625 -0.640625 2.640625 -0.640625q1.453186 0 2.562561 0.640625q1.125 0.625 1.734375 1.734375q0.609375 1.109375 0.609375 2.515625zm-1.75 -0.359375q0 -0.96875 -0.4375 -1.671875q-0.421875 -0.703125 -1.171875 -1.0625q-0.73443604 -0.359375 -1.625061 -0.359375q-1.28125 0 -2.1875 0.828125q-0.90625 0.8125 -1.03125 2.265625l6.453186 0zm6.0511475 -2.96875l0 6.03125q0 0.75 0.3125 1.0625q0.328125 0.296875 1.109375 0.296875l1.25 0l0 1.4375l-1.53125 0q-1.40625 0 -2.125 -0.65625q-0.703125 -0.65625 -0.703125 -2.140625l0 -6.03125l-1.328125 0l0 -1.390625l1.328125 0l0 -2.578125l1.6875 0l0 2.578125l2.671875 0l0 1.390625l-2.671875 0zm18.353394 -1.390625l-3.203125 10.21875l-1.75 0l-2.453125 -8.109375l-2.46875 8.109375l-1.75 0l-3.21875 -10.21875l1.734375 0l2.359375 8.578125l2.53125 -8.578125l1.734375 0l2.484375 8.59375l2.3125 -8.59375l1.6875 0zm6.126343 10.390625q-1.4375 0 -2.609375 -0.65625q-1.15625 -0.65625 -1.828125 -1.859375q-0.65625 -1.203125 -0.65625 -2.78125q0 -1.578125 0.6875 -2.78125q0.6875 -1.203125 1.859375 -1.84375q1.171875 -0.640625 2.625 -0.640625q1.453125 0 2.625 0.640625q1.1875 0.640625 1.859375 1.84375q0.6875 1.1875 0.6875 2.78125q0 1.578125 -0.703125 2.78125q-0.703125 1.203125 -1.90625 1.859375q-1.1875 0.65625 -2.640625 0.65625zm0 -1.5q0.921875 0 1.71875 -0.421875q0.796875 -0.4375 1.296875 -1.296875q0.5 -0.859375 0.5 -2.078125q0 -1.234375 -0.484375 -2.09375q-0.484375 -0.859375 -1.28125 -1.28125q-0.78125 -0.421875 -1.6875 -0.421875q-0.9375 0 -1.71875 0.421875q-0.765625 0.421875 -1.234375 1.28125q-0.46875 0.859375 -0.46875 2.09375q0 1.25 0.453125 2.109375q0.46875 0.84375 1.234375 1.265625q0.765625 0.421875 1.671875 0.421875zm9.189941 -7.234375q0.4375 -0.875 1.265625 -1.359375q0.84375 -0.484375 2.03125 -0.484375l0 1.75l-0.453125 0q-2.84375 0 -2.84375 3.09375l0 5.5625l-1.703125 0l0 -10.21875l1.703125 0l0 1.65625zm10.95874 8.5625l-4.0 -4.515625l0 4.515625l-1.703125 0l0 -13.8125l1.703125 0l0 8.125l3.9375 -4.53125l2.359375 0l-4.8125 5.09375l4.828125 5.125l-2.3125 0z" fill-rule="nonzero"/></g></svg>